# xmcd CD database file
#
# Track frame offsets:
#	150
#	20042
#	31835
#	51327
#	68670
#	96555
#	105927
#	115022
#	129167
#	142695
#
# Disc length: 2066 seconds
#
# Revision: 0
# Processed by: cddbd v1.5.1PL0 Copyright (c) Steve Scherf et al.
# Submitted via: CDex 1.51
#
DISCID=7a08100a
DTITLE=TOMOVSKY - GO
DYEAR=2003
DGENRE=JPop
TTITLE0=GO!GO!GO!
TTITLE1=ひとりに戻るんだ
TTITLE2=TPO
TTITLE3=コドクはゴラク
TTITLE4=幻想
TTITLE5=カオが変わってゆくよ
TTITLE6=中国のことわざ
TTITLE7=魔法
TTITLE8=接続
TTITLE9=世界は終わってなかった
EXTD=YEAR: 2003
EXTT0=
EXTT1=
EXTT2=
EXTT3=
EXTT4=
EXTT5=
EXTT6=
EXTT7=
EXTT8=
EXTT9=
PLAYORDER=
